<svg width="1100" height="606" viewBox="0 0 1100 606" fill="none" xmlns="http://www.w3.org/2000/svg">
<g clip-path="url(#clip0_5_236)">
<path d="M0 377.74L26.2778 387.638C52.5556 397.637 105.111 417.433 157.422 422.382C209.856 427.23 261.922 417.13 314.356 416.423C366.667 415.817 419.222 424.503 471.533 425.917C523.967 427.23 576.033 421.17 628.467 417.938C680.778 414.807 733.333 414.403 785.644 420.867C838.078 427.23 890.144 440.36 942.578 433.29C994.889 426.22 1047.44 398.95 1073.72 385.315L1100 371.68V607.01H1073.72C1047.44 607.01 994.889 607.01 942.578 607.01C890.144 607.01 838.078 607.01 785.644 607.01C733.333 607.01 680.778 607.01 628.467 607.01C576.033 607.01 523.967 607.01 471.533 607.01C419.222 607.01 366.667 607.01 314.356 607.01C261.922 607.01 209.856 607.01 157.422 607.01C105.111 607.01 52.5556 607.01 26.2778 607.01H0V377.74Z" fill="#922200"/>
<path d="M0 411.07L26.2778 411.878C52.5556 412.787 105.111 414.403 157.422 418.847C209.856 423.19 261.922 430.26 314.356 430.765C366.667 431.27 419.222 425.21 471.533 424.907C523.967 424.503 576.033 429.957 628.467 434.3C680.778 438.643 733.333 442.077 785.644 446.622C838.078 451.167 890.144 456.823 942.578 462.883C994.889 468.943 1047.44 475.407 1073.72 478.538L1100 481.77V607.01H1073.72C1047.44 607.01 994.889 607.01 942.578 607.01C890.144 607.01 838.078 607.01 785.644 607.01C733.333 607.01 680.778 607.01 628.467 607.01C576.033 607.01 523.967 607.01 471.533 607.01C419.222 607.01 366.667 607.01 314.356 607.01C261.922 607.01 209.856 607.01 157.422 607.01C105.111 607.01 52.5556 607.01 26.2778 607.01H0V411.07Z" fill="#9F2D02"/>
<path d="M0 482.78L26.2778 483.992C52.5556 485.103 105.111 487.527 157.422 481.568C209.856 475.71 261.922 461.57 314.356 453.49C366.667 445.41 419.222 443.39 471.533 446.622C523.967 449.753 576.033 458.237 628.467 459.752C680.778 461.267 733.333 455.813 785.644 461.772C838.078 467.63 890.144 484.8 942.578 489.648C994.889 494.597 1047.44 487.123 1073.72 483.487L1100 479.75V607.01H1073.72C1047.44 607.01 994.889 607.01 942.578 607.01C890.144 607.01 838.078 607.01 785.644 607.01C733.333 607.01 680.778 607.01 628.467 607.01C576.033 607.01 523.967 607.01 471.533 607.01C419.222 607.01 366.667 607.01 314.356 607.01C261.922 607.01 209.856 607.01 157.422 607.01C105.111 607.01 52.5556 607.01 26.2778 607.01H0V482.78Z" fill="#AC3703"/>
<path d="M0 494.9L26.2778 503.283C52.5556 511.767 105.111 528.533 157.422 527.927C209.856 527.22 261.922 509.04 314.356 500.455C366.667 491.87 419.222 492.88 471.533 496.92C523.967 500.96 576.033 508.03 628.467 508.737C680.778 509.343 733.333 503.687 785.644 507.727C838.078 511.767 890.144 525.503 942.578 527.725C994.889 529.947 1047.44 520.453 1073.72 515.807L1100 511.06V607.01H1073.72C1047.44 607.01 994.889 607.01 942.578 607.01C890.144 607.01 838.078 607.01 785.644 607.01C733.333 607.01 680.778 607.01 628.467 607.01C576.033 607.01 523.967 607.01 471.533 607.01C419.222 607.01 366.667 607.01 314.356 607.01C261.922 607.01 209.856 607.01 157.422 607.01C105.111 607.01 52.5556 607.01 26.2778 607.01H0V494.9Z" fill="#B94105"/>
<path d="M0 555.5L26.2778 557.217C52.5556 558.833 105.111 562.267 157.422 564.085C209.856 565.903 261.922 566.307 314.356 563.277C366.667 560.247 419.222 553.783 471.533 548.43C523.967 543.077 576.033 538.633 628.467 543.178C680.778 547.723 733.333 561.257 785.644 561.358C838.078 561.56 890.144 548.43 942.578 548.733C994.889 549.137 1047.44 562.873 1073.72 569.842L1100 576.71V607.01H1073.72C1047.44 607.01 994.889 607.01 942.578 607.01C890.144 607.01 838.078 607.01 785.644 607.01C733.333 607.01 680.778 607.01 628.467 607.01C576.033 607.01 523.967 607.01 471.533 607.01C419.222 607.01 366.667 607.01 314.356 607.01C261.922 607.01 209.856 607.01 157.422 607.01C105.111 607.01 52.5556 607.01 26.2778 607.01H0V555.5Z" fill="#C54C07"/>
</g>
<defs>
<clipPath id="clip0_5_236">
<rect width="1100" height="606" fill="white"/>
</clipPath>
</defs>
</svg>
