<svg id="visual" viewBox="0 0 900 450" width="900" height="450" xmlns="http://www.w3.org/2000/svg" xmlns:xlink="http://www.w3.org/1999/xlink" version="1.1"><path d="M0 281L18.8 285.7C37.7 290.3 75.3 299.7 112.8 302.7C150.3 305.7 187.7 302.3 225.2 306.5C262.7 310.7 300.3 322.3 337.8 324.2C375.3 326 412.7 318 450.2 316.8C487.7 315.7 525.3 321.3 562.8 325.5C600.3 329.7 637.7 332.3 675.2 325C712.7 317.7 750.3 300.3 787.8 298C825.3 295.7 862.7 308.3 881.3 314.7L900 321L900 451L881.3 451C862.7 451 825.3 451 787.8 451C750.3 451 712.7 451 675.2 451C637.7 451 600.3 451 562.8 451C525.3 451 487.7 451 450.2 451C412.7 451 375.3 451 337.8 451C300.3 451 262.7 451 225.2 451C187.7 451 150.3 451 112.8 451C75.3 451 37.7 451 18.8 451L0 451Z" fill="#c54c07"></path><path d="M0 315L18.8 314C37.7 313 75.3 311 112.8 311.8C150.3 312.7 187.7 316.3 225.2 320.3C262.7 324.3 300.3 328.7 337.8 331.7C375.3 334.7 412.7 336.3 450.2 338C487.7 339.7 525.3 341.3 562.8 343.8C600.3 346.3 637.7 349.7 675.2 351.8C712.7 354 750.3 355 787.8 347.2C825.3 339.3 862.7 322.7 881.3 314.3L900 306L900 451L881.3 451C862.7 451 825.3 451 787.8 451C750.3 451 712.7 451 675.2 451C637.7 451 600.3 451 562.8 451C525.3 451 487.7 451 450.2 451C412.7 451 375.3 451 337.8 451C300.3 451 262.7 451 225.2 451C187.7 451 150.3 451 112.8 451C75.3 451 37.7 451 18.8 451L0 451Z" fill="#b94105"></path><path d="M0 370L18.8 368.2C37.7 366.3 75.3 362.7 112.8 361.5C150.3 360.3 187.7 361.7 225.2 363.8C262.7 366 300.3 369 337.8 368.5C375.3 368 412.7 364 450.2 361.2C487.7 358.3 525.3 356.7 562.8 354.8C600.3 353 637.7 351 675.2 352C712.7 353 750.3 357 787.8 356.8C825.3 356.7 862.7 352.3 881.3 350.2L900 348L900 451L881.3 451C862.7 451 825.3 451 787.8 451C750.3 451 712.7 451 675.2 451C637.7 451 600.3 451 562.8 451C525.3 451 487.7 451 450.2 451C412.7 451 375.3 451 337.8 451C300.3 451 262.7 451 225.2 451C187.7 451 150.3 451 112.8 451C75.3 451 37.7 451 18.8 451L0 451Z" fill="#ac3703"></path><path d="M0 395L18.8 392.5C37.7 390 75.3 385 112.8 385.8C150.3 386.7 187.7 393.3 225.2 394C262.7 394.7 300.3 389.3 337.8 387.8C375.3 386.3 412.7 388.7 450.2 388.7C487.7 388.7 525.3 386.3 562.8 387.2C600.3 388 637.7 392 675.2 390.2C712.7 388.3 750.3 380.7 787.8 381.7C825.3 382.7 862.7 392.3 881.3 397.2L900 402L900 451L881.3 451C862.7 451 825.3 451 787.8 451C750.3 451 712.7 451 675.2 451C637.7 451 600.3 451 562.8 451C525.3 451 487.7 451 450.2 451C412.7 451 375.3 451 337.8 451C300.3 451 262.7 451 225.2 451C187.7 451 150.3 451 112.8 451C75.3 451 37.7 451 18.8 451L0 451Z" fill="#9f2d02"></path><path d="M0 425L18.8 423C37.7 421 75.3 417 112.8 416.5C150.3 416 187.7 419 225.2 420.8C262.7 422.7 300.3 423.3 337.8 419.8C375.3 416.3 412.7 408.7 450.2 408.8C487.7 409 525.3 417 562.8 420.5C600.3 424 637.7 423 675.2 422.2C712.7 421.3 750.3 420.7 787.8 417.5C825.3 414.3 862.7 408.7 881.3 405.8L900 403L900 451L881.3 451C862.7 451 825.3 451 787.8 451C750.3 451 712.7 451 675.2 451C637.7 451 600.3 451 562.8 451C525.3 451 487.7 451 450.2 451C412.7 451 375.3 451 337.8 451C300.3 451 262.7 451 225.2 451C187.7 451 150.3 451 112.8 451C75.3 451 37.7 451 18.8 451L0 451Z" fill="#922200"></path></svg>